<svg width="1393" height="262" viewBox="0 0 1393 262" fill="none" xmlns="http://www.w3.org/2000/svg">
<path d="M553.195 0.0799942L501.355 61.136V82H469.355V61.136L417.515 0.0799942H455.275L497.387 53.2H473.707L515.435 0.0799942H553.195ZM603.78 83.92C590.212 83.92 578.905 82.8107 569.86 80.592C560.9 78.3733 554.159 74.832 549.636 69.968C545.199 65.104 542.98 58.704 542.98 50.768C542.98 42.832 545.199 36.432 549.636 31.568C554.159 26.6187 560.9 23.0347 569.86 20.816C578.905 18.512 590.212 17.36 603.78 17.36C617.263 17.36 628.441 18.512 637.316 20.816C646.276 23.0347 652.975 26.6187 657.412 31.568C661.849 36.432 664.068 42.832 664.068 50.768C664.068 58.704 661.849 65.104 657.412 69.968C652.975 74.832 646.276 78.3733 637.316 80.592C628.441 82.8107 617.263 83.92 603.78 83.92ZM603.78 65.36C610.095 65.36 615.385 64.848 619.652 63.824C623.919 62.7147 627.161 61.0933 629.38 58.96C631.599 56.7413 632.708 54.0107 632.708 50.768C632.708 47.5253 631.599 44.7947 629.38 42.576C627.247 40.3573 624.047 38.6933 619.78 37.584C615.513 36.4747 610.18 35.92 603.78 35.92C597.465 35.92 592.089 36.4747 587.652 37.584C583.3 38.6933 579.972 40.3573 577.668 42.576C575.449 44.7093 574.34 47.44 574.34 50.768C574.34 54.0107 575.449 56.7413 577.668 58.96C579.887 61.0933 583.172 62.7147 587.524 63.824C591.961 64.848 597.38 65.36 603.78 65.36ZM790.484 82H759.764V19.28H790.484V82ZM761.044 49.616L761.3 55.76C761.044 57.552 760.191 59.6427 758.74 62.032C757.375 64.4213 755.455 66.896 752.98 69.456C750.505 72.016 747.476 74.4053 743.892 76.624C740.308 78.7573 736.212 80.5067 731.604 81.872C726.996 83.2373 721.876 83.92 716.244 83.92C710.612 83.92 705.279 83.3227 700.244 82.128C695.209 81.0187 690.729 79.1413 686.804 76.496C682.879 73.8507 679.807 70.3093 677.588 65.872C675.369 61.3493 674.26 55.7173 674.26 48.976V19.28H704.98V45.776C704.98 50.4693 705.748 54.096 707.284 56.656C708.905 59.216 711.423 61.008 714.836 62.032C718.249 62.9707 722.644 63.44 728.02 63.44C733.055 63.44 737.705 62.7147 741.972 61.264C746.324 59.728 750.121 57.8933 753.364 55.76C756.692 53.6267 759.252 51.5787 761.044 49.616ZM802.01 19.28H832.73V82H802.01V19.28ZM865.754 42.96C860.207 42.96 855.13 43.472 850.522 44.496C845.914 45.52 841.989 46.7573 838.746 48.208C835.503 49.5733 833.071 50.9387 831.45 52.304L831.194 46.16C831.45 44.368 832.133 42.2773 833.242 39.888C834.351 37.4133 835.845 34.896 837.722 32.336C839.599 29.6907 841.903 27.2587 844.634 25.04C847.365 22.736 850.479 20.9013 853.978 19.536C857.562 18.0853 861.487 17.36 865.754 17.36V42.96ZM873.495 59.472H901.783C902.978 61.6907 905.239 63.2267 908.567 64.08C911.98 64.9333 916.844 65.36 923.159 65.36C928.023 65.36 931.607 65.104 933.911 64.592C936.3 64.08 937.836 63.3973 938.519 62.544C939.287 61.6907 939.671 60.7947 939.671 59.856C939.671 58.4053 938.86 57.424 937.239 56.912C935.703 56.3147 933.058 55.9733 929.303 55.888C925.548 55.7173 920.386 55.632 913.815 55.632C907.586 55.632 901.996 55.376 897.047 54.864C892.183 54.2667 888.044 53.3707 884.631 52.176C881.218 50.896 878.615 49.1467 876.823 46.928C875.031 44.7093 874.135 41.936 874.135 38.608C874.135 34.512 875.458 31.0987 878.103 28.368C880.748 25.552 884.332 23.376 888.855 21.84C893.378 20.2187 898.583 19.0667 904.471 18.384C910.444 17.7013 916.674 17.36 923.159 17.36C933.911 17.36 942.7 18.4693 949.527 20.688C956.354 22.8213 961.388 25.7227 964.631 29.392C967.874 33.0613 969.452 37.2 969.367 41.808H941.847C940.908 39.5893 939.116 38.0533 936.471 37.2C933.911 36.3467 929.474 35.92 923.159 35.92C917.186 35.92 912.834 36.3893 910.103 37.328C907.458 38.1813 906.135 39.5893 906.135 41.552C906.135 42.832 906.775 43.8133 908.055 44.496C909.42 45.0933 911.938 45.52 915.607 45.776C919.362 46.032 924.823 46.16 931.991 46.16C936.94 46.16 941.762 46.3307 946.455 46.672C951.234 47.0133 955.5 47.7387 959.255 48.848C963.095 49.9573 966.124 51.664 968.343 53.968C970.562 56.272 971.671 59.4293 971.671 63.44C971.671 68.304 969.666 72.272 965.655 75.344C961.73 78.3307 956.14 80.5067 948.887 81.872C941.634 83.2373 933.058 83.92 923.159 83.92C914.54 83.92 907.244 83.3653 901.271 82.256C895.383 81.1467 890.562 79.696 886.807 77.904C883.052 76.0267 880.151 74.0213 878.103 71.888C876.14 69.6693 874.818 67.4933 874.135 65.36C873.538 63.1413 873.324 61.1787 873.495 59.472ZM29.3895 223.584V204.384H116.942V223.584H29.3895ZM0.7175 236L55.6295 154.08H91.2135L146.638 236H111.438L63.9495 162.656H83.0215L35.9175 236H0.7175ZM153.698 173.28H184.418V236H153.698V173.28ZM230.498 171.36C235.532 171.36 240.396 171.915 245.09 173.024C249.783 174.048 253.964 175.84 257.634 178.4C261.388 180.96 264.375 184.459 266.594 188.896C268.812 193.333 269.922 198.923 269.922 205.664V236H239.202V209.504C239.202 203.104 237.538 198.581 234.21 195.936C230.882 193.205 224.866 191.84 216.162 191.84C211.554 191.84 207.074 192.352 202.722 193.376C198.455 194.4 194.615 195.637 191.202 197.088C187.788 198.453 185.1 199.819 183.138 201.184L182.882 196.32C183.223 194.784 184.375 192.651 186.338 189.92C188.386 187.104 191.33 184.288 195.17 181.472C199.01 178.656 203.831 176.267 209.634 174.304C215.522 172.341 222.476 171.36 230.498 171.36ZM340.968 237.92C327.4 237.92 316.093 236.811 307.048 234.592C298.088 232.373 291.346 228.832 286.824 223.968C282.386 219.104 280.168 212.704 280.168 204.768C280.168 196.832 282.386 190.432 286.824 185.568C291.346 180.619 298.088 177.035 307.048 174.816C316.093 172.512 327.4 171.36 340.968 171.36C354.45 171.36 365.629 172.512 374.504 174.816C383.464 177.035 390.162 180.619 394.6 185.568C399.037 190.432 401.256 196.832 401.256 204.768C401.256 212.704 399.037 219.104 394.6 223.968C390.162 228.832 383.464 232.373 374.504 234.592C365.629 236.811 354.45 237.92 340.968 237.92ZM340.968 219.36C347.282 219.36 352.573 218.848 356.84 217.824C361.106 216.715 364.349 215.093 366.568 212.96C368.786 210.741 369.896 208.011 369.896 204.768C369.896 201.525 368.786 198.795 366.568 196.576C364.434 194.357 361.234 192.693 356.968 191.584C352.701 190.475 347.368 189.92 340.968 189.92C334.653 189.92 329.277 190.475 324.84 191.584C320.488 192.693 317.16 194.357 314.856 196.576C312.637 198.709 311.528 201.44 311.528 204.768C311.528 208.011 312.637 210.741 314.856 212.96C317.074 215.093 320.36 216.715 324.712 217.824C329.149 218.848 334.568 219.36 340.968 219.36ZM411.448 173.28H442.168V236H411.448V173.28ZM488.248 171.36C493.282 171.36 498.146 171.915 502.84 173.024C507.533 174.048 511.714 175.84 515.384 178.4C519.138 180.96 522.125 184.459 524.344 188.896C526.562 193.333 527.672 198.923 527.672 205.664V236H496.952V209.504C496.952 203.104 495.288 198.581 491.96 195.936C488.632 193.205 482.616 191.84 473.912 191.84C469.304 191.84 464.824 192.352 460.472 193.376C456.205 194.4 452.365 195.637 448.952 197.088C445.538 198.453 442.85 199.819 440.888 201.184L440.632 196.32C440.973 194.784 442.125 192.651 444.088 189.92C446.136 187.104 449.08 184.288 452.92 181.472C456.76 178.656 461.581 176.267 467.384 174.304C473.272 172.341 480.226 171.36 488.248 171.36ZM532.828 173.28H565.468L602.844 233.44L576.348 236L532.828 173.28ZM650.588 173.28L588.252 261.6H556.892L583.644 225.376L617.948 173.28H650.588ZM656.948 173.28H687.668V236H656.948V173.28ZM733.748 171.36C738.782 171.36 743.646 171.915 748.34 173.024C753.033 174.048 757.214 175.84 760.884 178.4C764.638 180.96 767.625 184.459 769.844 188.896C772.062 193.333 773.172 198.923 773.172 205.664V236H742.452V209.504C742.452 203.104 740.788 198.581 737.46 195.936C734.132 193.205 728.116 191.84 719.412 191.84C714.804 191.84 710.324 192.352 705.972 193.376C701.705 194.4 697.865 195.637 694.452 197.088C691.038 198.453 688.35 199.819 686.388 201.184L686.132 196.32C686.473 194.784 687.625 192.651 689.588 189.92C691.636 187.104 694.58 184.288 698.42 181.472C702.26 178.656 707.081 176.267 712.884 174.304C718.772 172.341 725.726 171.36 733.748 171.36ZM817.716 171.36C822.75 171.36 827.614 171.915 832.308 173.024C837.001 174.048 841.182 175.84 844.852 178.4C848.606 180.96 851.593 184.459 853.812 188.896C856.03 193.333 857.14 198.923 857.14 205.664V236H826.42V209.504C826.42 203.104 824.756 198.581 821.428 195.936C818.1 193.205 812.084 191.84 803.38 191.84C798.772 191.84 794.292 192.352 789.94 193.376C785.673 194.4 781.833 195.637 778.42 197.088C775.006 198.453 772.318 199.819 770.356 201.184L770.1 195.04C770.441 193.76 771.721 191.84 773.94 189.28C776.158 186.72 779.273 184.075 783.284 181.344C787.38 178.613 792.286 176.267 798.004 174.304C803.806 172.341 810.377 171.36 817.716 171.36ZM928.218 237.92C914.65 237.92 903.343 236.811 894.298 234.592C885.338 232.373 878.596 228.832 874.074 223.968C869.636 219.104 867.418 212.704 867.418 204.768C867.418 196.832 869.636 190.432 874.074 185.568C878.596 180.619 885.338 177.035 894.298 174.816C903.343 172.512 914.65 171.36 928.218 171.36C941.7 171.36 952.879 172.512 961.754 174.816C970.714 177.035 977.412 180.619 981.85 185.568C986.287 190.432 988.506 196.832 988.506 204.768C988.506 212.704 986.287 219.104 981.85 223.968C977.412 228.832 970.714 232.373 961.754 234.592C952.879 236.811 941.7 237.92 928.218 237.92ZM928.218 219.36C934.532 219.36 939.823 218.848 944.09 217.824C948.356 216.715 951.599 215.093 953.818 212.96C956.036 210.741 957.146 208.011 957.146 204.768C957.146 201.525 956.036 198.795 953.818 196.576C951.684 194.357 948.484 192.693 944.218 191.584C939.951 190.475 934.618 189.92 928.218 189.92C921.903 189.92 916.527 190.475 912.09 191.584C907.738 192.693 904.41 194.357 902.106 196.576C899.887 198.709 898.778 201.44 898.778 204.768C898.778 208.011 899.887 210.741 902.106 212.96C904.324 215.093 907.61 216.715 911.962 217.824C916.399 218.848 921.818 219.36 928.218 219.36ZM1114.92 236H1084.2V173.28H1114.92V236ZM1085.48 203.616L1085.74 209.76C1085.48 211.552 1084.63 213.643 1083.18 216.032C1081.81 218.421 1079.89 220.896 1077.42 223.456C1074.94 226.016 1071.91 228.405 1068.33 230.624C1064.75 232.757 1060.65 234.507 1056.04 235.872C1051.43 237.237 1046.31 237.92 1040.68 237.92C1035.05 237.92 1029.72 237.323 1024.68 236.128C1019.65 235.019 1015.17 233.141 1011.24 230.496C1007.32 227.851 1004.24 224.309 1002.03 219.872C999.807 215.349 998.698 209.717 998.698 202.976V173.28H1029.42V199.776C1029.42 204.469 1030.19 208.096 1031.72 210.656C1033.34 213.216 1035.86 215.008 1039.27 216.032C1042.69 216.971 1047.08 217.44 1052.46 217.44C1057.49 217.44 1062.14 216.715 1066.41 215.264C1070.76 213.728 1074.56 211.893 1077.8 209.76C1081.13 207.627 1083.69 205.579 1085.48 203.616ZM1125.81 213.472H1154.1C1155.29 215.691 1157.55 217.227 1160.88 218.08C1164.29 218.933 1169.16 219.36 1175.47 219.36C1180.34 219.36 1183.92 219.104 1186.22 218.592C1188.61 218.08 1190.15 217.397 1190.83 216.544C1191.6 215.691 1191.98 214.795 1191.98 213.856C1191.98 212.405 1191.17 211.424 1189.55 210.912C1188.02 210.315 1185.37 209.973 1181.62 209.888C1177.86 209.717 1172.7 209.632 1166.13 209.632C1159.9 209.632 1154.31 209.376 1149.36 208.864C1144.5 208.267 1140.36 207.371 1136.94 206.176C1133.53 204.896 1130.93 203.147 1129.14 200.928C1127.34 198.709 1126.45 195.936 1126.45 192.608C1126.45 188.512 1127.77 185.099 1130.42 182.368C1133.06 179.552 1136.64 177.376 1141.17 175.84C1145.69 174.219 1150.9 173.067 1156.78 172.384C1162.76 171.701 1168.99 171.36 1175.47 171.36C1186.22 171.36 1195.01 172.469 1201.84 174.688C1208.67 176.821 1213.7 179.723 1216.94 183.392C1220.19 187.061 1221.76 191.2 1221.68 195.808H1194.16C1193.22 193.589 1191.43 192.053 1188.78 191.2C1186.22 190.347 1181.79 189.92 1175.47 189.92C1169.5 189.92 1165.15 190.389 1162.42 191.328C1159.77 192.181 1158.45 193.589 1158.45 195.552C1158.45 196.832 1159.09 197.813 1160.37 198.496C1161.73 199.093 1164.25 199.52 1167.92 199.776C1171.67 200.032 1177.14 200.16 1184.3 200.16C1189.25 200.16 1194.07 200.331 1198.77 200.672C1203.55 201.013 1207.81 201.739 1211.57 202.848C1215.41 203.957 1218.44 205.664 1220.66 207.968C1222.87 210.272 1223.98 213.429 1223.98 217.44C1223.98 222.304 1221.98 226.272 1217.97 229.344C1214.04 232.331 1208.45 234.507 1201.2 235.872C1193.95 237.237 1185.37 237.92 1175.47 237.92C1166.85 237.92 1159.56 237.365 1153.58 236.256C1147.7 235.147 1142.87 233.696 1139.12 231.904C1135.36 230.027 1132.46 228.021 1130.42 225.888C1128.45 223.669 1127.13 221.493 1126.45 219.36C1125.85 217.141 1125.64 215.179 1125.81 213.472ZM1236.12 147.68H1266.84V236H1236.12V147.68ZM1275.2 173.28H1307.84L1345.22 233.44L1318.72 236L1275.2 173.28ZM1392.96 173.28L1330.63 261.6H1299.27L1326.02 225.376L1360.32 173.28H1392.96Z" fill="#F18FDF"/>
</svg>
